# xmcd
#
# Track frame offsets:
#   150
#   19578
#   31622
#   44487
#   55641
#   69076
#   80211
#   91649
#   106093
#   119347
#
# Disc length: 1761 seconds
#
# Revision: 0
# Processed by: cddbd v1.4PL0 Copyright (c) Steve Scherf et al.
# Submitted via: uFREEDB 1.6.0
#
DISCID=6b06df0a
DTITLE=Martin, Dean - Once In A While
DYEAR=1974
DGENRE=Vocal
TTITLE0=Twilight On The Trail
TTITLE1=Love Thy Neighbors
TTITLE2=Without A Word Of Warning
TTITLE3=That Old Gang Of Mine
TTITLE4=The Day You Came Along
TTITLE5=It's Magic
TTITLE6=If I Had You
TTITLE7=Only Forever
TTITLE8=I Cried For You
TTITLE9=Once In A While
EXTD=
EXTT0=
EXTT1=
EXTT2=
EXTT3=
EXTT4=
EXTT5=
EXTT6=
EXTT7=
EXTT8=
EXTT9=
PLAYORDER=
